:SAMPLES-PER-SECOND 30
:FULLY-SPECIFIED
:DEGREES
307
root  0.24627 39.6194 1.60127 21.6983 -53.1935 -24.1599
RightUpLeg  -6.37391 -11.4067 15.6788
RightLeg  17.4361 7.09429 3.53238
RightFoot  -1.73919 -0.713692 8.37765
RightToes  -1.28057e-009 0 -3.6325e-017
Spine  12.6481 -3.91983 -17.4
Spine1  -7.66234 -9.55203 35.4977
HEad  -8.99562 -6.29996 1.21132
LeftShoulder1  0.554873 -4.14871 1.36873
LeftArm  9.15474 -38.2788 -82.4442
LeftForeArm  179.734 -78.854 -133.496
LeftHand  0.757561 7.13158 46.1483
RightShoulder  0.117799 -2.80864 10.0205
RightArm  -28.4079 13.3297 49.1623
RightForeArm  -175.267 69.1715 156.286
RightHand  -1.2093 -2.24069 -42.921
LeftUpLeg  -12.3884 -31.4301 9.8659
LeftLeg  35.4697 32.1848 22.4363
LeftFoot  -12.5187 0.0448334 -2.90141
LeftToes  -7.27922e-012 9.28972e-011 -9.04533e-012
308
root  0.109774 39.3815 1.5394 25.4254 -54.3244 -27.7955
RightUpLeg  -5.50904 -6.78505 16.9678
RightLeg  15.6206 4.85133 4.32206
RightFoot  -3.55191 -0.646774 9.0547
RightToes  -1.28057e-009 0 -3.6325e-017
Spine  11.678 -3.39946 -18.6192
Spine1  -7.34202 -9.26886 37.3723
HEad  -7.75767 -5.77104 3.35924
LeftShoulder1  0.450501 -3.33898 2.10868
LeftArm  29.951 -39.4985 -89.8835
LeftForeArm  152.698 -81.9698 -99.4607
LeftHand  -0.15038 4.9574 44.0962
RightShoulder  0.362263 -1.73947 13.4995
RightArm  -36.1014 3.42303 47.5387
RightForeArm  176.147 69.8405 154.439
RightHand  -1.61708 -1.46172 -45.6394
LeftUpLeg  -14.0786 -29.9885 12.0465
LeftLeg  38.778 31.2732 24.3512
LeftFoot  -13.1959 0.0200576 -3.49641
LeftToes  -7.27922e-012 9.28972e-011 -9.04533e-012
309
root  0.172415 39.1486 1.60792 26.2657 -58.0953 -29.7586
RightUpLeg  -4.31923 -3.67384 17.4288
RightLeg  16.5797 2.65322 2.50861
RightFoot  -5.95715 -0.344859 6.37002
RightToes  -1.28057e-009 0 -3.6325e-017
Spine  11.2397 -2.55913 -17.5041
Spine1  -5.11313 -8.43019 33.4899
HEad  -7.6119 -4.90897 4.70529
LeftShoulder1  0.455474 -2.74303 1.2863
LeftArm  45.341 -36.1865 -92.9066
LeftForeArm  111.439 -80.3229 -52.5918
LeftHand  -1.47429 1.30145 40.9357
RightShoulder  0.865256 0.0410428 17.9279
RightArm  -38.8292 -6.06887 46.4913
RightForeArm  159.465 73.2245 146.233
RightHand  -1.97111 -0.831689 -47.8713
LeftUpLeg  -12.5511 -24.1952 11.2153
LeftLeg  38.7349 27.5949 22.0306
LeftFoot  -14.4133 -0.104567 -6.99272
LeftToes  -7.27922e-012 9.28972e-011 -9.04533e-012
310
root  0.424826 38.9687 1.87054 24.6287 -63.5642 -29.7282
RightUpLeg  -3.33745 -0.196084 16.1796
RightLeg  19.7294 0.201035 -0.0941844
RightFoot  -8.27113 -0.141466 3.28295
RightToes  -1.28057e-009 0 -3.6325e-017
Spine  11.6128 -1.87366 -15.0855
Spine1  -2.29346 -7.38994 26.7928
HEad  -8.85613 -2.9008 2.50942
LeftShoulder1  0.723985 -3.22345 -2.54167
LeftArm  51.0984 -29.2179 -88.5878
LeftForeArm  92.1377 -75.3273 -30.5039
LeftHand  -2.57653 -2.51561 36.7881
RightShoulder  1.37614 1.55072 21.0222
RightArm  -35.7323 -11.8043 46.1746
RightForeArm  125.93 78.7946 118.586
RightHand  -1.59871 -1.56947 -46.0439
LeftUpLeg  -9.60433 -16.7214 8.23641
LeftLeg  37.5183 23.4903 18.5033
LeftFoot  -15.6022 -0.27538 -9.96839
LeftToes  -7.27922e-012 9.28972e-011 -9.04533e-012
311
root  0.825865 38.8135 2.34924 20.2061 -69.1729 -26.3927
RightUpLeg  -3.52594 6.05867 12.7588
RightLeg  24.2161 -2.92421 -1.65921
RightFoot  -10.444 -0.0882181 2.64229
RightToes  -1.28057e-009 0 -3.6325e-017
Spine  12.6896 -1.88474 -11.8868
Spine1  -0.123902 -6.511 19.0084
HEad  -12.691 -0.563043 -2.94988
LeftShoulder1  1.3957 -4.61815 -9.77178
LeftArm  49.5544 -21.0409 -78.2864
LeftForeArm  81.7955 -69.8517 -21.1467
LeftHand  -2.63108 -3.4157 33.9555
RightShoulder  1.65287 2.39212 21.8252
RightArm  -28.2301 -13.8713 46.8525
RightForeArm  74.6889 79.4802 67.3883
RightHand  -0.773797 -3.22581 -40.2994
LeftUpLeg  -8.32904 -9.16799 4.24734
LeftLeg  38.1074 19.6994 16.1761
LeftFoot  -15.4072 -0.278773 -10.2621
LeftToes  -7.27922e-012 9.28972e-011 -9.04533e-012
312
root  1.27402 38.6127 2.92359 12.3058 -73.1339 -19.0462
RightUpLeg  -4.57458 10.3914 8.48634
RightLeg  28.6564 -3.43892 -2.2573
RightFoot  -12.7798 -0.0419166 3.55347
RightToes  -1.28057e-009 0 -3.6325e-017
Spine  14.0814 -2.82451 -7.62067
Spine1  1.4003 -5.95324 10.7724
HEad  -19.0479 0.329315 -8.64734
LeftShoulder1  2.24431 -5.93138 -17.1848
LeftArm  45.0298 -14.1133 -67.5921
LeftForeArm  72.4196 -63.3477 -15.4153
LeftHand  -2.12476 -1.8253 33.6841
RightShoulder  1.78178 2.93637 21.4114
RightArm  -19.5302 -15.1726 48.6677
RightForeArm  56.998 76.7363 45.1397
RightHand  -0.362449 -4.22215 -36.1183
LeftUpLeg  -9.88212 -2.95136 0.79914
LeftLeg  41.7216 14.1279 13.4522
LeftFoot  -13.1038 -0.0899359 -11.578
LeftToes  -7.27922e-012 9.28972e-011 -9.04533e-012
313
root  1.64121 38.4013 3.43031 3.65761 -74.7313 -10.9859
RightUpLeg  -5.01187 13.5127 5.41923
RightLeg  31.4856 -4.16105 -2.99301
RightFoot  -14.8418 0.0349331 4.43828
RightToes  -1.28057e-009 0 -3.6325e-017
Spine  15.0728 -4.20867 -2.59677
Spine1  3.00959 -5.46754 3.42305
HEad  -25.3487 -0.737254 -12.1086
LeftShoulder1  2.67536 -6.54043 -20.232
LeftArm  39.6932 -8.89827 -62.523
LeftForeArm  62.545 -54.6383 -10.7984
LeftHand  -1.51488 0.607151 35.8924
RightShoulder  1.84761 3.3428 20.6717
RightArm  -12.1418 -18.1309 51.6727
RightForeArm  64.9229 77.3935 47.1986
RightHand  -0.346321 -4.27506 -35.524
LeftUpLeg  -12.9151 0.731673 -0.248291
LeftLeg  47.2265 5.46899 6.58389
LeftFoot  -8.673 0.519938 -18.469
LeftToes  -7.27922e-012 9.28972e-011 -9.04533e-012
314
root  1.88026 38.1321 3.8261 -2.19006 -75.3754 -5.94753
RightUpLeg  -4.99435 16.866 4.21942
RightLeg  34.0056 -5.84882 -4.48688
RightFoot  -16.6851 0.138483 5.37873
RightToes  -1.28057e-009 0 -3.6325e-017
Spine  15.4169 -5.05246 1.78714
Spine1  4.49467 -4.60717 -1.42706
HEad  -29.0316 -2.29549 -13.3306
LeftShoulder1  2.62327 -6.64093 -19.3671
LeftArm  33.4177 -4.43238 -62.4576
LeftForeArm  52.7652 -45.9024 -7.89656
LeftHand  -1.29583 1.34038 36.3273
RightShoulder  1.7906 3.31074 19.9051
RightArm  -5.5105 -21.8888 54.8263
RightForeArm  85.6877 79.8364 62.9224
RightHand  -0.51817 -3.7181 -35.3476
LeftUpLeg  -16.3257 2.44808 1.39326
LeftLeg  54.2535 -2.60577 -3.38471
LeftFoot  -4.30157 1.71223 -27.292
LeftToes  -7.27922e-012 9.28972e-011 -9.04533e-012
315
root  2.02487 37.9598 4.16364 -8.35928 -76.6729 -0.614899
RightUpLeg  -4.70854 20.0886 3.20367
RightLeg  35.9902 -6.76477 -5.50578
RightFoot  -17.847 0.245651 6.46206
RightToes  -1.28057e-009 0 -3.6325e-017
Spine  15.788 -4.9203 3.73427
Spine1  4.97332 -3.48121 -4.12875
HEad  -29.842 -2.6995 -13.4301
LeftShoulder1  2.51587 -6.57819 -18.3952
LeftArm  26.7462 0.238871 -62.3886
LeftForeArm  44.0201 -40.07 -6.62801
LeftHand  -1.34326 1.1887 36.2999
RightShoulder  1.6417 2.85253 19.4317
RightArm  2.58559 -23.772 56.5704
RightForeArm  105.543 80.9618 79.2516
RightHand  -0.66085 -3.11175 -32.9553
LeftUpLeg  -18.8101 3.63172 3.91902
LeftLeg  60.5163 -5.2388 -9.20241
LeftFoot  -2.75346 2.31324 -30.0205
LeftToes  -7.27922e-012 9.28972e-011 -9.04533e-012
316
root  2.12839 38.0078 4.49441 -18.5277 -78.334 8.66743
RightUpLeg  -3.89121 21.5753 1.0905
RightLeg  36.358 -5.86731 -4.88597
RightFoot  -18.1203 0.285456 6.89184
RightToes  -1.28057e-009 0 -3.6325e-017
Spine  16.5616 -4.4771 3.43271
Spine1  4.67087 -2.69881 -5.87345
HEad  -29.1441 -1.61951 -13.0736
LeftShoulder1  2.54491 -6.52712 -18.8435
LeftArm  21.0311 5.30039 -59.8726
LeftForeArm  35.1185 -37.6154 -6.48113
LeftHand  -1.37079 1.29132 37.8659
RightShoulder  1.53865 2.50556 19.1931
RightArm  12.0288 -22.7347 57.2101
RightForeArm  109.703 81.1171 80.004
RightHand  -0.693727 -2.57335 -28.0843
LeftUpLeg  -19.2709 4.11528 6.15504
LeftLeg  63.6307 -3.07916 -6.08458
LeftFoot  -3.36825 1.9484 -27.1821
LeftToes  -7.27922e-012 9.28972e-011 -9.04533e-012
